<svg viewBox="0 0 175 63" xmlns="http://www.w3.org/2000/svg"><path style="fill:#6b6b6b" d="M1.594 1.992s4.23.595 10.699 3.211c3.667 1.483 10.763 5.55 10.963 10.363.201 4.814-4.021 4.916-8.067 12.104-4.462 7.93-3.04 17.012 1.809 23.338 4.459 5.817 10.397 8.269 14.756 9.19 5.187 1.094 10.328.395 11.933-.151 3.183-1.082 4.48-3.403 4.842-4.764.72-2.697-.13-2.327-2.941-2.16-2.923.173-8.02-.051-12.875-2.99-3.844-2.327-5.714-5.53-6.315-8.22 0 0 2.04 2.979 9.16 5.212 7.02 2.203 12.509.498 14.008-.701 1.46-1.168-.134-3.14-.134-3.14s2.8-1.19 4.013-2.475c1.686-1.788-.194-2.946-2.775-5.918a47.815 47.815 0 0 1-3.108-4.045s1.998-1.155 3.528-3.055c1.37-1.699 3.811-5.66 2.715-11.209-1.31-6.627-8.505-12.147-15.756-13.53-4.387-.834-5.938-1.06-15.963-1.06H1.594zM99.98 12.76v39.78h6.13V12.76h-6.13zm40.51 0v39.78h6.11V40.15h.12l9.77 12.39h7.43l-11.07-14.12 11-12.49h-7.58l-9.53 10.78h-.15V12.76h-6.1zm27.02 0v7.06h6.43v-7.06h-6.43zM67.02 15.79v36.75l6.33.01v-16.6h.1l13.98 16.6h8.1L79.95 34l14.41-18.21h-7.87L73.45 32.51h-.1V15.79h-6.33zm56.511 9.485a11.999 11.999 0 0 0-4.37.905 10.604 10.604 0 0 0-3.792 2.66 12.997 12.997 0 0 0-2.639 4.5c-.63 1.8-.98 3.93-.98 6.35a16.5 16.5 0 0 0 1.06 6.25 11.104 11.104 0 0 0 2.83 4.2 11.102 11.102 0 0 0 4.15 2.37 18.18 18.18 0 0 0 5.07.72c1.75 0 3.46-.18 5.1-.5 1.61-.34 2.84-.68 3.64-1.05v-5.2c-1.34.49-2.64.86-3.94 1.09-1.29.28-2.54.4-3.71.4-1.1 0-2.1-.12-3.03-.37-.93-.24-1.76-.63-2.44-1.17-.71-.54-1.27-1.25-1.69-2.1-.44-.88-.68-1.93-.78-3.18h16.39c.05-.63.08-1.42.1-2.32 0-2.37-.29-4.4-.83-6.13-.54-1.73-1.3-3.15-2.27-4.25a8.709 8.709 0 0 0-3.47-2.42 11.99 11.99 0 0 0-4.399-.755zm44.13.655v26.6h6.128v-26.6h-6.129zm-128.579.623c1.985-.119 3.778 2.86 4.004 6.652.226 3.792-1.2 6.962-3.186 7.082-1.986.119-3.778-2.859-4.004-6.652-.226-3.793 1.2-6.964 3.186-7.082zm84.398 3.797a4.137 4.137 0 0 1 3.47 1.69c.39.51.68 1.12.88 1.81.21.72.317 1.47.32 2.22h-9.85a8.86 8.86 0 0 1 .52-2.23 6.223 6.223 0 0 1 1.02-1.8 4.86 4.86 0 0 1 3.64-1.69z"/></svg>